HIERARCHY
ROOT Hips
{
  OFFSET 0.0 0.0 0.0
  CHANNELS 6 XPOSITION YPOSITION ZPOSITION ZROTATION XROTATION YROTATION 
  JOINT LeftUpLeg
  {
    OFFSET 0.089458 -0.0866707 0.00101652
    CHANNELS 3 ZROTATION XROTATION YROTATION 
    JOINT LeftLeg
    {
      OFFSET 0.0 -0.444227 0.013727
      CHANNELS 3 ZROTATION XROTATION YROTATION 
      JOINT LeftFoot
      {
        OFFSET -0.00253549 -0.420924 -0.0146059
        CHANNELS 3 ZROTATION XROTATION YROTATION 
        End Site
        {
          OFFSET -0.0004 -0.0441509 0.084991
        }
      }
    }
  }
  JOINT Spine
  {
    OFFSET 0.0 0.118905 0.0
    CHANNELS 3 ZROTATION XROTATION YROTATION 
    JOINT Spine1
    {
      OFFSET 0.0 0.256574 0.00127663
      CHANNELS 3 ZROTATION XROTATION YROTATION 
      End Site
      {
        OFFSET -0.0029 0.2150836 0.02525291
      }
      JOINT RightArm
      {
        OFFSET -0.162727 -0.05365632 0.00102123
        CHANNELS 3 ZROTATION XROTATION YROTATION 
        JOINT RightForeArm
        {
          OFFSET -0.26364 0.00099144 -0.0142434
          CHANNELS 3 ZROTATION XROTATION YROTATION 
          End Site
          {
            OFFSET -0.220324 0.00085362 0.0102216
          }
        }
      }
      JOINT LeftArm
      {
        OFFSET 0.162727 -0.0536563199 0.00102123
        CHANNELS 3 ZROTATION XROTATION YROTATION 
        JOINT LeftForeArm
        {
          OFFSET 0.262597 0.00099144 -0.0142434
          CHANNELS 3 ZROTATION XROTATION YROTATION 
          End Site
          {
            OFFSET 0.220902 0.00085362 0.0102216
          }
        }
      }
    }
  }
  JOINT RightUpLeg
  {
    OFFSET -0.089458 -0.0866707 0.00101652
    CHANNELS 3 ZROTATION XROTATION YROTATION 
    JOINT RightLeg
    {
      OFFSET 0.0 -0.444227 0.013727
      CHANNELS 3 ZROTATION XROTATION YROTATION 
      JOINT RightFoot
      {
        OFFSET 0.00253549 -0.420924 -0.0146059
        CHANNELS 3 ZROTATION XROTATION YROTATION 
        End Site
        {
          OFFSET 0.0004 -0.0441509 0.084991
        }
      }
    }
  }
}
MOTION
Frames: 6
Frame Time: 0.033333
-9.77128935346 0.947072778458 0.00197101882953 -11.104915996 -1.9260290358 -89.6395802522 -5.53612573505 -4.55681235808 1.66474783306 2.91851293848 27.6435138542 19.9626075476 -1.21531348827 -38.7342111039 0.982121438493 -7.64353492657 9.58603133501 -0.881972829292 6.73601324108 -1.56482739487 -2.79065414509 72.9231362209 -30.0806585387 4.66921379304 13.7692353337 38.4664198771 -8.90244295099 -84.329886814 -19.6675689886 -57.9709437125 -17.5082695693 46.610720368 10.9730643167 -5.47748770725 -3.21458136187 -3.78535359038 -4.55200732 49.1228844353 -4.67041121058 20.0877707641 -40.9171019966 2.05045032304 
-9.78762291839 0.942716564282 0.00255373901404 -11.453428106 -2.85357192673 -90.4108520434 -6.64034875779 -2.86590831559 2.34267655158 2.98318501152 27.5243116852 19.7059973405 -2.50543867884 -43.0060641278 0.957527421395 -11.7066838364 11.4474704735 -0.983688860185 9.62435467267 -2.35267338721 -4.1943512943 64.6796238172 -29.7284974002 -13.5283499296 13.5631949934 40.3344902755 -8.39449373524 -81.6942739077 -17.780730938 -69.4622042363 -14.9517178102 45.8685725033 6.35275894703 -6.42311032237 -10.4895424188 -1.92265513579 -7.65535115383 63.387632064 -2.31859181046 18.8207074938 -35.141405242 0.58301352833 
-9.8046992013 0.941538418696 0.00228521018363 -11.6129932778 -3.39294726974 -91.281352823 -7.21688118365 -1.16753289993 3.28765200627 2.97900792396 26.8673226192 19.3904596763 -3.55224713142 -45.2153127205 0.798742598665 -14.6697454031 13.0394210831 -1.48815702733 11.7347089564 -3.08587455781 -5.76452043071 56.6546979576 -27.5102688163 -29.8298847283 12.6738719201 39.6858067195 -6.66431247649 -76.6297432796 -18.2814845494 -78.4870288093 -12.0476716392 43.6446082681 1.09631697205 -6.64709399648 -17.7817486362 -0.327764796693 -14.6718337335 75.8782380558 3.76540132716 17.6043532555 -33.1314479089 -0.0463329851061 
-9.82293598628 0.943533475054 0.001819457517 -11.6114616079 -3.49025206564 -91.758639612 -7.3274038897 0.622849859612 3.79790875874 2.88543134412 25.7378979059 19.2374839294 -3.80550478287 -46.0448460254 0.790023915551 -16.3781532995 14.3554918145 -2.49975404046 13.0353135781 -3.49626348589 -7.51734974297 49.274917616 -24.6996579257 -43.4041138923 11.498950463 37.3944524227 -4.7653004674 -71.4634633235 -20.7175176207 -85.9217033813 -9.87891411549 40.5296800065 -2.67805804974 -6.6696933849 -24.5376663291 0.278300726807 -45.6001085029 85.2834085429 33.366467888 16.8186458594 -33.6608729469 -0.158283577558 
-9.84268811633 0.946396190971 0.00197736335461 -11.6778920278 -3.16354213297 -92.620022089 -7.09992059741 2.60580425327 4.45993508933 2.71320065368 24.5633546706 19.2613793462 -3.71928047479 -46.5702173462 0.860064730725 -16.978743786 15.2832978812 -3.45112916896 13.3380830574 -3.04267916084 -8.95662769544 42.6909943316 -22.0036644395 -53.9519886879 10.3264426241 34.819699917 -3.30857735801 -67.8713029145 -23.7829765296 -92.6203362777 -8.51391788533 37.7783295447 -4.34362806682 -6.3254915512 -30.7929277409 0.616424519233 -147.8616427 84.3266493044 134.156909111 16.0140376223 -34.6154909212 -0.166398989551 
-9.86403742545 0.948617723916 0.00291233019267 -11.8020136405 -2.5632844047 -94.0308386432 -6.68841450652 4.77342967317 5.64559915329 2.41421040342 23.3454175359 19.2580479215 -3.42941941269 -46.7336535278 0.943973444596 -16.76595095 15.764711812 -4.10378341279 12.8435611398 -1.86997943625 -9.8380840984 37.3358664751 -19.5488261499 -61.4603575859 9.3847251696 32.7352047295 -2.37355797125 -65.5617768995 -26.6064981853 -98.5172893806 -7.5205624932 35.8286725367 -4.6485913175 -5.28702062517 -36.5029624719 1.27416517292 -166.111976464 79.0430950002 151.290452305 15.3549909618 -35.4447100374 -0.164944666185 
